<mxfile host="app.diagrams.net" modified="2024-07-18T04:27:44.018Z" agent="Mozilla/5.0 (X11; Linux x86_64) AppleWebKit/537.36 (KHTML, like Gecko) Chrome/121.0.0.0 Safari/537.36" version="24.7.1" etag="j-la-tNN9i-7yvD6hUOk" type="github">
  <diagram name="Page-1" id="rtXYH2Qdkpdng2-P1M2L">
    <mxGraphModel>
      <root>
        <mxCell id="0" />
        <mxCell id="1" parent="0" />
      </root>
    </mxGraphModel>
  </diagram>
</mxfile>
